<?xml version="1.0" encoding="UTF-8" standalone="no"?>
<!DOCTYPE svg PUBLIC "-//W3C//DTD SVG 1.1//EN" "http://www.w3.org/Graphics/SVG/1.1/DTD/svg11.dtd">
<svg width="100%" height="100%" viewBox="0 0 1024 1024" version="1.1" xmlns="http://www.w3.org/2000/svg" xmlns:xlink="http://www.w3.org/1999/xlink" xml:space="preserve" xmlns:serif="http://www.serif.com/" style="fill-rule:evenodd;clip-rule:evenodd;stroke-linejoin:round;stroke-miterlimit:2;">
    <g transform="matrix(1,0,0,1.33333,0,-24.6667)">
        <rect x="0" y="209" width="1024" height="3"/>
    </g>
    <g transform="matrix(1,0,0,1.33333,0,231.333)">
        <rect x="0" y="209" width="1024" height="3"/>
    </g>
    <g transform="matrix(1,0,0,1.33333,0,487.333)">
        <rect x="0" y="209" width="1024" height="3"/>
    </g>
    <g transform="matrix(6.12323e-17,1,-1.33333,8.16431e-17,536.667,5.5333e-14)">
        <rect x="0" y="209" width="1024" height="3"/>
    </g>
    <g transform="matrix(6.12323e-17,1,-1.33333,8.16431e-17,792.667,3.96575e-14)">
        <rect x="0" y="209" width="1024" height="3"/>
    </g>
    <g transform="matrix(6.12323e-17,1,-1.33333,8.16431e-17,1048.67,8.08255e-14)">
        <rect x="0" y="209" width="1024" height="3"/>
    </g>
</svg>
